<?xml version="1.0" encoding="utf-8"?>
<!-- Generator: Adobe Illustrator 26.0.2, SVG Export Plug-In . SVG Version: 6.00 Build 0)  -->
<svg version="1.1" id="Calque_1" xmlns="http://www.w3.org/2000/svg" xmlns:xlink="http://www.w3.org/1999/xlink" x="0px" y="0px"
	 viewBox="0 0 410 132" style="enable-background:new 0 0 410 132;" xml:space="preserve">
<style type="text/css">
	.st0{fill:#FFFFFF;}
</style>
<path class="st0" d="M258.44,115.53c0.46-0.14,0.82,0.08,1.09,0.67c0.43,1.37,0.02,2.43-1.24,3.19c-1.04,0.56-2.5,1.13-4.41,1.71
	c-3.32,1.01-7.05,1.49-11.2,1.46c-4.2-0.06-8.23-0.57-12.09-1.52c-3.9-0.94-7.55-2.12-10.97-3.54c-3.46-1.41-6.34-3.03-8.64-4.88
	c-2.3-1.84-3.7-3.54-4.19-5.1c-0.5-1.56-0.55-2.39-0.17-2.51c0.19-0.06,0.43,0.04,0.72,0.28c3.49,2.69,7.15,4.87,10.99,6.54
	c3.8,1.68,9.09,3.14,15.88,4.37c9.31,1.67,16.83,1.64,22.55-0.09L258.44,115.53z"/>
<path class="st0" d="M12.4,89.91V13.25h31.97c5.74,0,10.54,0.81,14.41,2.43c3.89,1.62,6.81,3.89,8.76,6.81
	c1.97,2.92,2.96,6.3,2.96,10.14c0,2.92-0.61,5.53-1.83,7.82c-1.22,2.27-2.91,4.15-5.05,5.65c-2.15,1.5-4.63,2.55-7.45,3.14v0.75
	c3.09,0.15,5.95,0.99,8.57,2.51c2.65,1.52,4.77,3.64,6.36,6.36c1.6,2.7,2.4,5.89,2.4,9.58c0,4.12-1.05,7.8-3.14,11.04
	c-2.1,3.22-5.13,5.76-9.1,7.64c-3.97,1.85-8.78,2.77-14.45,2.77H12.4z M30.93,74.98h11.45c4.02,0,6.97-0.76,8.87-2.28
	c1.92-1.52,2.88-3.64,2.88-6.36c0-1.97-0.46-3.67-1.38-5.09c-0.92-1.45-2.23-2.56-3.93-3.33c-1.7-0.8-3.73-1.2-6.1-1.2H30.93V74.98z
	 M30.93,44.77h10.26c2.02,0,3.82-0.34,5.39-1.01c1.57-0.67,2.79-1.65,3.67-2.92c0.9-1.27,1.35-2.81,1.35-4.6
	c0-2.57-0.91-4.59-2.73-6.06c-1.82-1.47-4.28-2.21-7.37-2.21H30.93V44.77z M100.71,13.25v76.66H82.4V13.25H100.71z M139.19,91
	c-6.04,0-11.23-1.24-15.57-3.71c-4.32-2.5-7.65-5.96-9.99-10.41c-2.32-4.47-3.48-9.64-3.48-15.53c0-5.91,1.16-11.09,3.48-15.53
	c2.35-4.47,5.68-7.94,9.99-10.41c4.34-2.5,9.53-3.74,15.57-3.74c6.04,0,11.22,1.25,15.53,3.74c4.34,2.47,7.67,5.94,9.99,10.41
	c2.35,4.44,3.52,9.62,3.52,15.53c0,5.89-1.17,11.07-3.52,15.53c-2.32,4.44-5.65,7.91-9.99,10.41C150.41,89.76,145.23,91,139.19,91z
	 M139.31,77.19c2.2,0,4.06-0.67,5.58-2.02c1.52-1.35,2.68-3.22,3.48-5.61c0.82-2.4,1.24-5.17,1.24-8.31c0-3.19-0.41-5.99-1.24-8.38
	c-0.8-2.4-1.96-4.27-3.48-5.61c-1.52-1.35-3.38-2.02-5.58-2.02c-2.27,0-4.19,0.67-5.76,2.02c-1.55,1.35-2.73,3.22-3.56,5.61
	c-0.8,2.4-1.2,5.19-1.2,8.38c0,3.14,0.4,5.91,1.2,8.31c0.82,2.4,2.01,4.27,3.56,5.61C135.11,76.51,137.04,77.19,139.31,77.19z
	 M227.93,38.29c-0.42-1.57-1.05-2.96-1.87-4.15c-0.82-1.22-1.83-2.26-3.03-3.11c-1.2-0.85-2.57-1.48-4.12-1.91
	c-1.55-0.45-3.24-0.67-5.09-0.67c-3.72,0-6.94,0.9-9.66,2.7c-2.69,1.8-4.78,4.42-6.25,7.86c-1.47,3.42-2.21,7.57-2.21,12.46
	c0,4.92,0.71,9.11,2.13,12.58c1.42,3.47,3.48,6.11,6.17,7.94c2.69,1.82,5.96,2.73,9.81,2.73c3.39,0,6.26-0.55,8.61-1.65
	c2.37-1.12,4.17-2.71,5.39-4.75c1.22-2.05,1.83-4.45,1.83-7.22l3.44,0.41h-18.64V47.99h33.05v10.14c0,6.86-1.46,12.74-4.38,17.63
	c-2.89,4.89-6.89,8.65-11.98,11.27c-5.07,2.62-10.89,3.93-17.48,3.93c-7.31,0-13.74-1.58-19.28-4.75
	c-5.54-3.17-9.86-7.69-12.95-13.55c-3.09-5.89-4.64-12.88-4.64-20.96c0-6.29,0.94-11.87,2.81-16.73c1.87-4.89,4.48-9.03,7.82-12.43
	c3.37-3.39,7.26-5.96,11.68-7.71c4.44-1.75,9.22-2.62,14.34-2.62c4.44,0,8.57,0.64,12.39,1.91c3.84,1.27,7.24,3.07,10.18,5.39
	c2.97,2.32,5.38,5.08,7.22,8.27c1.85,3.19,2.99,6.7,3.44,10.52H227.93z M308.73,38.29c-0.42-1.57-1.05-2.96-1.87-4.15
	c-0.82-1.22-1.83-2.26-3.03-3.11c-1.2-0.85-2.57-1.48-4.12-1.91c-1.55-0.45-3.24-0.67-5.09-0.67c-3.72,0-6.94,0.9-9.66,2.7
	c-2.69,1.8-4.78,4.42-6.25,7.86c-1.47,3.42-2.21,7.57-2.21,12.46c0,4.92,0.71,9.11,2.13,12.58c1.42,3.47,3.48,6.11,6.18,7.94
	c2.69,1.82,5.96,2.73,9.81,2.73c3.39,0,6.26-0.55,8.61-1.65c2.37-1.12,4.17-2.71,5.39-4.75c1.22-2.05,1.83-4.45,1.83-7.22l3.44,0.41
	h-18.64V47.99h33.05v10.14c0,6.86-1.46,12.74-4.38,17.63c-2.89,4.89-6.89,8.65-11.98,11.27c-5.07,2.62-10.89,3.93-17.48,3.93
	c-7.31,0-13.74-1.58-19.28-4.75c-5.54-3.17-9.86-7.69-12.95-13.55c-3.09-5.89-4.64-12.88-4.64-20.96c0-6.29,0.94-11.87,2.81-16.73
	c1.87-4.89,4.48-9.03,7.82-12.43c3.37-3.39,7.26-5.96,11.68-7.71c4.44-1.75,9.22-2.62,14.34-2.62c4.44,0,8.57,0.64,12.39,1.91
	c3.84,1.27,7.24,3.07,10.18,5.39c2.97,2.32,5.38,5.08,7.22,8.27c1.85,3.19,3,6.7,3.44,10.52H308.73z M350.42,111.47
	c-2.2,0-4.27-0.17-6.21-0.52c-1.95-0.32-3.62-0.76-5.02-1.31l4.04-13.29c1.8,0.6,3.42,0.95,4.87,1.05c1.47,0.1,2.73-0.14,3.78-0.71
	c1.07-0.55,1.9-1.53,2.47-2.96l0.71-1.72l-20.44-59.59h19.16l10.59,41.02h0.6l10.74-41.02H395l-21.67,63
	c-1.05,3.14-2.53,5.91-4.45,8.31c-1.9,2.42-4.35,4.32-7.37,5.69C358.5,110.79,354.81,111.47,350.42,111.47z"/>
</svg>
